<svg xmlns="http://www.w3.org/2000/svg" xmlns:xlink="http://www.w3.org/1999/xlink" viewBox="0 0 579.452 658.657">
  <defs>
    <style>
      .cls-1, .cls-2 {
        fill: none;
      }

      .cls-2 {
        stroke: #707070;
        stroke-width: 50px;
      }

      .cls-3 {
        clip-path: url(#clip-path);
      }

      .cls-4, .cls-5 {
        fill: #707070;
      }

      .cls-6, .cls-7 {
        stroke: none;
      }

      .cls-7 {
        fill: #fff;
      }
    </style>
    <clipPath id="clip-path">
      <rect className="cls-1" width="350" height="350"/>
    </clipPath>
  </defs>
  <g id="Group_1" data-name="Group 1" transform="translate(-10 261.657)">
    <g id="Rectangle_1" data-name="Rectangle 1" className="cls-2" transform="translate(10 -103)">
      <rect className="cls-6" width="500" height="500" rx="50"/>
      <rect className="cls-1" x="25" y="25" width="450" height="450" rx="25"/>
    </g>
    <g id="Repeat_Grid_1" data-name="Repeat Grid 1" className="cls-3" transform="translate(85 -28)">
      <g transform="translate(-85 3)">
        <rect id="Rectangle_2" data-name="Rectangle 2" className="cls-4" width="350" height="50" transform="translate(85 -3)"/>
      </g>
      <g transform="translate(-85 78)">
        <rect id="Rectangle_2-2" data-name="Rectangle 2" className="cls-4" width="350" height="50" transform="translate(85 -3)"/>
      </g>
      <g transform="translate(-85 153)">
        <rect id="Rectangle_2-3" data-name="Rectangle 2" className="cls-4" width="350" height="50" transform="translate(85 -3)"/>
      </g>
      <g transform="translate(-85 228)">
        <rect id="Rectangle_2-4" data-name="Rectangle 2" className="cls-4" width="350" height="50" transform="translate(85 -3)"/>
      </g>
      <g transform="translate(-85 303)">
        <rect id="Rectangle_2-5" data-name="Rectangle 2" className="cls-4" width="350" height="50" transform="translate(85 -3)"/>
      </g>
    </g>
    <g id="Path_1" data-name="Path 1" className="cls-5" transform="translate(468.699 -227.506) rotate(30)">
      <path className="cls-6" d="M 50 527.9508666992188 L 38.8196907043457 505.5901489257812 L -11.18030738830566 405.5901489257812 L -12.5 402.9508361816406 L -12.5 400 L -12.5 0 L -12.5 -12.5 L 0 -12.5 L 100 -12.5 L 112.5 -12.5 L 112.5 0 L 112.5 400 L 112.5 402.9508361816406 L 111.180305480957 405.5901489257812 L 61.1803092956543 505.5901489257812 L 50 527.9508666992188 Z"/>
      <path className="cls-7" d="M 50 500 L 100 400 L 100 2.842170943040401e-14 L 0 2.842170943040401e-14 L 0 400 L 50 500 M 50 555.9017333984375 L 27.63936424255371 511.1803588867188 L -22.36063575744629 411.1803588867188 L -25 405.9017333984375 L -25 400 L -25 2.842170943040401e-14 L -25 -25 L 0 -25 L 100 -25 L 125 -25 L 125 2.842170943040401e-14 L 125 400 L 125 405.9017333984375 L 122.3606338500977 411.1803588867188 L 72.36063385009766 511.1803588867188 L 50 555.9017333984375 Z"/>
    </g>
  </g>
</svg>
